<svg xmlns="http://www.w3.org/2000/svg" viewBox="0 0 32 40" x="0px" y="0px"><title>Arrow Right</title><g data-name="Arrow Right"><path d="M27.92,16.38a1,1,0,0,0,0-.76,1,1,0,0,0-.21-.33l-8-8a1,1,0,1,0-1.42,1.42L24.59,15H5a1,1,0,0,0,0,2H24.59l-6.3,6.29a1,1,0,0,0,0,1.42,1,1,0,0,0,1.42,0l8-8A1,1,0,0,0,27.92,16.38Z"/></g><text x="0" y="47" fill="#000000" font-size="5px" font-weight="bold" font-family="'Helvetica Neue', Helvetica, Arial-Unicode, Arial, Sans-serif">Created by Luthfi Asiddiqi</text><text x="0" y="52" fill="#000000" font-size="5px" font-weight="bold" font-family="'Helvetica Neue', Helvetica, Arial-Unicode, Arial, Sans-serif">from the Noun Project</text></svg>